<svg id="Group_33" data-name="Group 33" xmlns="http://www.w3.org/2000/svg" width="28" height="28" viewBox="0 0 28 28">
  <circle id="Ellipse_2" data-name="Ellipse 2" cx="14" cy="14" r="14" fill="#fff"/>
  <path id="Icon_awesome-amazon" data-name="Icon awesome-amazon" d="M12.067,8.3c-2.253.083-7.841.717-7.841,5.435,0,5.065,6.4,5.273,8.488,2a21.333,21.333,0,0,0,2.1,2.165l2.627-2.59s-1.494-1.17-1.494-2.442v-6.8c0-1.17-1.133-3.807-5.195-3.807S4.517,4.794,4.517,7.075l3.4.315A2.882,2.882,0,0,1,10.425,5.1c1.883,0,1.642,1.378,1.642,3.2Zm0,4.015c0,3.7-3.895,3.146-3.895.8,0-2.183,2.336-2.623,3.895-2.674Zm6.291,7.563a11.235,11.235,0,0,1-8.072,3.1c-4.834,0-8.535-3.307-9.668-4.672-.315-.356.046-.523.254-.384,3.391,2.058,8.687,5.449,17.231,1.4C18.45,19.148,18.719,19.412,18.358,19.874Zm1.841.1a3.856,3.856,0,0,1-.981,1.434c-.254.208-.439.125-.3-.176s.893-2.151.587-2.544-1.712-.2-2.22-.148-.6.093-.648-.014c-.106-.264,1-.717,1.735-.81s1.9-.037,2.128.264A3.388,3.388,0,0,1,20.2,19.976Z" transform="translate(3.648 1.618)" fill="#002578"/>
</svg>
