<svg xmlns="http://www.w3.org/2000/svg" width="20" height="19.493" viewBox="0 0 20 19.493">
  <path id="Icon_awesome-arrow-right" data-name="Icon awesome-arrow-right" d="M8.5,3.953l.991-.991a1.067,1.067,0,0,1,1.513,0l8.678,8.673a1.067,1.067,0,0,1,0,1.513l-8.678,8.678a1.067,1.067,0,0,1-1.513,0L8.5,20.835A1.073,1.073,0,0,1,8.521,19.3L13.9,14.179H1.071A1.069,1.069,0,0,1,0,13.108V11.68a1.069,1.069,0,0,1,1.071-1.071H13.9L8.521,5.484A1.065,1.065,0,0,1,8.5,3.953Z" transform="translate(0 -2.647)" fill="#337ae9"/>
</svg>
