<svg xmlns="http://www.w3.org/2000/svg" width="14.48" height="14" viewBox="0 0 14.48 14">
  <g id="ifn0403" transform="translate(-14.403 -263.782)">
    <path id="Path_1" data-name="Path 1" d="M23.819,265.347a5.652,5.652,0,0,0-7.474-.3,5.208,5.208,0,0,0-.9,7.181,5.634,5.634,0,0,0,7.332,1.436l3.851,3.723a1.338,1.338,0,0,0,1.275.35,1.287,1.287,0,0,0,.937-.906,1.238,1.238,0,0,0-.362-1.233l-3.851-3.723a5.2,5.2,0,0,0-.809-6.532Zm-1.485,1.436a3.223,3.223,0,0,1,0,4.666,3.5,3.5,0,0,1-4.826,0,3.223,3.223,0,0,1,0-4.666A3.5,3.5,0,0,1,22.334,266.783Z" fill="#fff"/>
  </g>
</svg>
