<svg xmlns="http://www.w3.org/2000/svg" width="28" height="28" viewBox="0 0 28 28">
  <g id="Group_34" data-name="Group 34" transform="translate(-0.438)">
    <circle id="Ellipse_3" data-name="Ellipse 3" cx="14" cy="14" r="14" transform="translate(0.438)" fill="#fff"/>
    <path id="Icon_awesome-twitter" data-name="Icon awesome-twitter" d="M17.592,7.35c.012.174.012.348.012.523A11.355,11.355,0,0,1,6.171,19.306,11.356,11.356,0,0,1,0,17.5a8.313,8.313,0,0,0,.97.05,8.048,8.048,0,0,0,4.989-1.717A4.026,4.026,0,0,1,2.2,13.048a5.068,5.068,0,0,0,.759.062,4.25,4.25,0,0,0,1.058-.137A4.019,4.019,0,0,1,.8,9.029v-.05a4.047,4.047,0,0,0,1.816.51A4.025,4.025,0,0,1,1.369,4.115,11.423,11.423,0,0,0,9.654,8.32a4.536,4.536,0,0,1-.1-.921A4.022,4.022,0,0,1,16.51,4.65a7.912,7.912,0,0,0,2.55-.97,4.008,4.008,0,0,1-1.767,2.215,8.056,8.056,0,0,0,2.314-.622A8.638,8.638,0,0,1,17.592,7.35Z" transform="translate(5.051 3.101)" fill="#002578"/>
  </g>
</svg>
